# AST/ASF file generated using VICON BodyLanguage
# -----------------------------------------------
:version 1.10
:name VICON
:units
  mass 1.0
  length 0.45
  angle deg
:documentation
   .ast/.asf automatically generated from VICON data using
   VICON BodyBuilder and BodyLanguage model FoxedUp or BRILLIANT.MOD
:root
   order TX TY TZ RX RY RZ
   axis XYZ
   position 0 0 0  
   orientation 0 0 0 
:bonedata
  begin
     id 1 
     name lhipjoint
     direction 0.54267 -0.795011 0.271047 
     length 2.39899 
     axis 0 0 0  XYZ
  end
  begin
     id 2 
     name lfemur
     direction 0.34202 -0.939693 0  
     length 7.49701  
     axis 0 0 20  XYZ
    dof rx ry rz
    limits (-160.0 20.0)
           (-70.0 70.0)
           (-60.0 70.0)
  end
  begin
     id 3 
     name ltibia
     direction 0.34202 -0.939693 0   
     length 8.1668   
     axis 0 0 20   XYZ
    dof rx
    limits (-10.0 170.0)
  end
  begin
     id 4 
     name lfoot
     direction 0.0736283 -0.202292 0.976554   
     length 2.13544   
     axis -90 7.62852e-016 20   XYZ
    dof rx rz
    limits (-45.0 90.0)
           (-70.0 20.0)
  end
  begin
     id 5 
     name ltoes
     direction 1.53557e-011 -4.22024e-011 1   
     length 1.07411   
     axis -90 7.62852e-016 20   XYZ
    dof rx
    limits (-90.0 20.0)
  end
  begin
     id 6 
     name rhipjoint
     direction -0.538061 -0.797813 0.272002   
     length 2.39057  
     axis 0 0 0  XYZ 
  end
  begin
     id 7 
     name rfemur
     direction -0.34202 -0.939693 0   
     length 7.50152   
     axis 0 0 -20   XYZ
    dof rx ry rz
    limits (-160.0 20.0)
           (-70.0 70.0)
           (-70.0 60.0)
  end
  begin
     id 8 
     name rtibia
     direction -0.34202 -0.939693 0   
     length 8.05793   
     axis 0 0 -20   XYZ
    dof rx
    limits (-10.0 170.0)
 end
 begin
     id 9 
     name rfoot
     direction -0.0765195 -0.210236 0.974652   
     length 2.28698  
     axis -90 -7.62852e-016 -20   XYZ
    dof rx rz
    limits (-45.0 90.0)
           (-20.0 70.0)
  end
  begin
     id 10 
     name rtoes
     direction -1.53542e-011 -4.21847e-011 1   
     length 1.14762   
     axis -90 -7.62852e-016 -20   XYZ
    dof rx
    limits (-90.0 20.0)
  end
  begin
     id 11 
     name lowerback
     direction -0.0217239 0.996592 -0.0795765   
     length 2.08176   
     axis 0 0 0   XYZ
    dof rx ry rz
    limits (-20.0 45.0)
           (-30.0 30.0)
           (-30.0 30.0)
  end
  begin
     id 12 
     name upperback
     direction -0.00563773 0.999651 -0.0258155   
     length 2.08898   
     axis 0 0 0   XYZ
    dof rx ry rz
    limits (-20.0 45.0)
           (-30.0 30.0)
           (-30.0 30.0)
  end
  begin
     id 13 
     name thorax
     direction 0.0032706 0.999923 0.0119599   
     length 2.0968   
     axis 0 0 0   XYZ
    dof rx ry rz
    limits (-20.0 45.0)
           (-30.0 30.0)
           (-30.0 30.0)
  end
  begin
     id 14 
     name lowerneck
     direction -0.0285886 0.99568 0.0883427   
     length 1.81272   
     axis 0 0 0   XYZ
    dof rx ry rz
    limits (-20.0 45.0)
           (-30.0 30.0)
           (-30.0 30.0)
  end
  begin
     id 15 
     name upperneck
     direction 0.0807535 0.97985 -0.18268   
     length 1.82518   
     axis 0 0 0   XYZ
    dof rx ry rz
    limits (-20.0 45.0)
           (-30.0 30.0)
           (-30.0 30.0)
  end
  begin
     id 16
     name head
     direction 0.0236605 0.997053 -0.0729767  
     length 1.84443  
     axis 0 0 0   XYZ
    dof rx ry rz
    limits (-20.0 45.0)
           (-30.0 30.0)
           (-30.0 30.0)
  end
  begin
     id 17 
     name lclavicle
     direction 0.918986 0.39378 -0.0200683  
     length 3.27822  
     axis 0 0 0   XYZ
    dof ry rz
    limits (-20.0 10.0)
           (0.0 20.0)
  end
  begin
     id 18 
     name lhumerus
     direction 1 -4.4897e-011 2.09544e-027   
     length 5.5568   
     axis 180 -30 -90   XYZ
    dof rx ry rz
    limits (-60.0 90.0)
           (-90.0 90.0)
           (-90.0 90.0)
  end
  begin
     id 19
     name lradius
     direction 1 -4.48957e-011 -1.27696e-026   
     length 3.63979   
     axis 180 -30 -90   XYZ
    dof rx
    limits (-10.0 170.0)
  end
  begin
     id 20
     name lwrist
     direction 1 -4.49001e-011 -1.49001e-026   
     length 1.8199   
     axis 9.0955e-015 90 90   XYZ
    dof ry
    limits (-180.0 0.0)
 end
  begin
     id 21 
     name lhand
     direction 1 -4.48709e-011 -2.9758e-026   
     length 0.569419   
     axis 1.90115e-014 90 90   XYZ
    dof rx rz
    limits (-90.0 90.0)
           (-45.0 45.0)
  end
  begin
     id 22 
     name lfingers
     direction 1 -4.49175e-011 -5.96505e-026   
     length 0.45908   
     axis 3.80223e-014 90 90   XYZ
    dof rx
    limits (0.0 90.0)
  end
  begin
     id 23
     name lthumb
     direction 0.707107 -6.34864e-011 0.707107   
     length 0.65915   
     axis -90 45 -3.84942e-014   XYZ
    dof rx rz
    limits (-45.0 45.0)
           (-45.0 45.0)
  end
  begin
     id 24 
     name rclavicle
     direction -0.911913 0.396426 -0.106115   
     length 3.46301  
     axis 0 0 0   XYZ 
    dof ry rz
    limits (-10.0 20.0)
           (-20.0 0.0)
  end
  begin
     id 25 
     name rhumerus
     direction -1 -4.48965e-011 7.78516e-028  
     length 5.34339   
     axis 180 30 90   XYZ
    dof rx ry rz
    limits (-90.0 60.0)
           (-90.0 90.0)
           (-90.0 90.0)
  end
  begin
     id 26 
     name rradius
     direction -1 -4.48948e-011 -5.79823e-027   
     length 3.65101   
     axis 180 30 90   XYZ
    dof rx
    limits (-10.0 170.0)
  end
  begin
     id 27 
     name rwrist
     direction -1 -4.48995e-011 -1.48996e-026   
     length 1.8255   
     axis 9.0955e-015 -90 -90   XYZ
    dof ry
    limits (-180.0 0.0)
  end
  begin
     id 28
     name rhand
     direction -1 -4.48957e-011 -2.97937e-026   
     length 0.694249   
     axis 1.90115e-014 -90 -90   XYZ
    dof rx rz
    limits (-90.0 90.0)
           (-45.0 45.0)
  end
  begin
     id 29
     name rfingers
     direction -1 -4.4898e-011 -5.95943e-026   
     length 0.559721   
     axis 3.80223e-014 -90 -90   XYZ
    dof rx
    limits (0.0 90.0)
  end
  begin
     id 30
     name rthumb
     direction -0.707107 -6.34969e-011 0.707107   
     length 0.803651   
     axis -90 -45 3.84942e-014   XYZ
    dof rx rz
    limits (-45.0 45.0)
           (-45.0 45.0)
  end
:hierarchy
  begin
    root lhipjoint rhipjoint lowerback
    lhipjoint lfemur
    lfemur ltibia
    ltibia lfoot
    lfoot ltoes
    rhipjoint rfemur
    rfemur rtibia
    rtibia rfoot
    rfoot rtoes
    lowerback upperback
    upperback thorax
    thorax lowerneck lclavicle rclavicle
    lowerneck upperneck
    upperneck head
    lclavicle lhumerus
    lhumerus lradius
    lradius lwrist
    lwrist lhand lthumb
    lhand lfingers
    rclavicle rhumerus
    rhumerus rradius
    rradius rwrist
    rwrist rhand rthumb
    rhand rfingers
  end

#!OML:ASF H:\Terrain\Walking\May29\JustinRory\rory.ASF
:FULLY-SPECIFIED
:DEGREES
959
root 17.9185 18.1554 6.09347 -171.743 -50.5828 171.186
lowerback 6.69822 -0.836176 -8.30469
upperback 2.64149 -1.77389 -0.727659
thorax -0.78615 -0.986577 4.03077
lowerneck -9.3437 -5.34542 -5.53944
upperneck 13.9874 -7.29561 4.56024
head 6.14649 -3.55775 1.73722
rclavicle 1.04533e-014 7.45443e-016
rhumerus -47.2436 0.821596 -75.9473
rradius 108.796
rwrist -39.6425
rhand 14.0882 22.0703
rfingers 7.12502
rthumb 38.9927 -3.4518
lclavicle 1.04533e-014 7.45443e-016
lhumerus -34.8297 -19.5478 80.2066
lradius 113.137
lwrist 39.1226
lhand 11.7621 34.36
lfingers 7.12502
lthumb 36.7956 60.4771
rfemur -18.1895 19.243 -5.12951
rtibia 20.8584
rfoot -4.43727 0.22188
rtoes -9.72465
lfemur -4.60977 -9.07437 -18.1447
ltibia 25.7772
lfoot -17.9211 -8.2587
ltoes -1.83159
960
root 17.9073 18.1696 6.22205 -171.371 -50.0508 171.004
lowerback 6.72157 -0.875102 -8.45107
upperback 2.51463 -1.83914 -0.703021
thorax -0.916538 -1.00901 4.14545
lowerneck -9.31903 -5.26794 -5.56755
upperneck 14.0502 -7.17161 4.42702
head 6.15168 -3.51026 1.71093
rclavicle -8.20981e-014 -1.72694e-014
rhumerus -47.0271 1.90203 -76.6172
rradius 111.13
rwrist -39.941
rhand 17.3509 22.1269
rfingers 7.12502
rthumb 42.0598 -2.44306
lclavicle -8.20981e-014 -1.72694e-014
lhumerus -34.1471 -20.4891 80.1849
lradius 115.059
lwrist 40.2873
lhand 19.9646 36.9574
lfingers 7.12502
lthumb 44.5021 60.6505
rfemur -18.997 18.6088 -5.50998
rtibia 21.1478
rfoot -3.63711 -0.0181628
rtoes -6.35219
lfemur -5.34091 -8.30291 -18.5389
ltibia 26.2105
lfoot -17.3807 -9.06591
ltoes 1.13968
961
root 17.9006 18.178 6.35031 -171.56 -49.4712 171.627
lowerback 6.55655 -0.917066 -8.0369
upperback 2.44138 -1.8446 -0.578399
thorax -0.910374 -1.00441 4.04044
lowerneck -8.85352 -5.19651 -5.49549
upperneck 13.6436 -7.05658 4.2277
head 5.9278 -3.4722 1.66291
rclavicle -1.05822e-013 -8.89561e-015
rhumerus -46.6195 3.10685 -77.3059
rradius 113.382
rwrist -40.4042
rhand 20.3407 22.717
rfingers 7.12502
rthumb 44.8524 -0.840495
lclavicle -1.05822e-013 -8.89561e-015
lhumerus -33.187 -21.3636 79.9863
lradius 116.852
lwrist 41.6473
lhand 20.3889 36.751
lfingers 7.12502
lthumb 44.8972 60.291
rfemur -19.973 17.5987 -5.21209
rtibia 21.3794
rfoot -2.3393 -0.318721
rtoes -5.11387
lfemur -6.05811 -7.49859 -18.4017
ltibia 26.5138
lfoot -16.8987 -9.52059
ltoes 2.41031
962
root 17.8853 18.1978 6.47742 -171.929 -48.7824 172.37
lowerback 6.30496 -0.891886 -7.50769
upperback 2.45402 -1.74715 -0.473709
thorax -0.783977 -0.95625 3.83965
lowerneck -8.16356 -5.16012 -5.0397
upperneck 12.9298 -6.98356 3.66584
head 5.54638 -3.46095 1.44642
rclavicle 5.25537e-015 -3.03147e-015
rhumerus -46.0616 4.41171 -77.9565
rradius 115.555
rwrist -40.9971
rhand 23.9525 23.054
rfingers 7.12502
rthumb 48.1978 0.934014
lclavicle 5.25537e-015 -3.03147e-015
lhumerus -32.1903 -22.2958 79.7256
lradius 118.701
lwrist 43.236
lhand 19.9951 38.9341
lfingers 7.12502
lthumb 44.5305 62.6162
rfemur -20.6596 17.6371 -4.91668
rtibia 21.3679
rfoot -1.18121 -1.84819
rtoes -1.79522
lfemur -6.5738 -6.95607 -18.3152
ltibia 26.7388
lfoot -16.5749 -9.50278
ltoes 4.47049
963
root 17.8551 18.2348 6.59764 -172.042 -48.0799 172.659
lowerback 6.04989 -0.829903 -7.23865
upperback 2.49565 -1.62344 -0.462599
thorax -0.621922 -0.899441 3.68568
lowerneck -8.27729 -5.14089 -4.68482
upperneck 13.1205 -6.94347 3.19345
head 5.59407 -3.45624 1.24088
rclavicle 3.58434e-014 -2.02263e-014
rhumerus -45.5221 5.76669 -78.5289
rradius 117.784
rwrist -41.487
rhand 26.9374 22.8471
rfingers 7.12502
rthumb 50.9337 2.12876
lclavicle 3.58434e-014 -2.02263e-014
lhumerus -31.2836 -23.2488 79.5284
lradius 120.63
lwrist 44.5044
lhand 19.5081 39.5622
lfingers 7.12502
lthumb 44.0766 63.4164
rfemur -20.9679 18.3575 -4.99442
rtibia 21.1879
rfoot -0.582439 -4.47295
rtoes 5.24813
lfemur -6.88816 -6.65214 -18.6464
ltibia 26.9463
lfoot -16.5251 -9.11345
ltoes 6.07961
964
root 17.8224 18.2686 6.72171 -171.617 -47.3792 172.389
lowerback 5.75198 -0.76597 -7.30245
upperback 2.43114 -1.51541 -0.485498
thorax -0.534072 -0.845572 3.68516
lowerneck -8.49125 -5.14597 -4.69266
upperneck 13.619 -6.92799 2.9056
head 5.77619 -3.47095 1.14162
rclavicle -7.78987e-015 -7.7526e-015
rhumerus -45.1525 7.09414 -78.8232
rradius 120.159
rwrist -41.6258
rhand 28.6218 23.207
rfingers 7.12502
rthumb 52.4637 3.38089
lclavicle -7.78987e-015 -7.7526e-015
lhumerus -30.3742 -24.0858 79.3747
lradius 122.447
lwrist 45.4673
lhand 19.0886 39.8369
lfingers 7.12502
lthumb 43.6851 63.8362
rfemur -21.3259 17.8114 -5.20411
rtibia 20.9672
rfoot 0.241941 -6.6121
rtoes 8.12356
lfemur -7.30533 -6.60046 -19.4317
ltibia 27.093
lfoot -16.781 -8.18302
ltoes 6.20828
965
root 17.7976 18.2913 6.8386 -172.024 -46.7497 172.996
lowerback 5.62479 -0.737585 -6.93851
upperback 2.42285 -1.4387 -0.271232
thorax -0.485044 -0.804553 3.69656
lowerneck -8.15456 -5.10986 -4.837
upperneck 13.4791 -6.86184 2.81939
head 5.6745 -3.45746 1.15379
rclavicle -5.25537e-014 5.56597e-015
rhumerus -44.6482 8.46454 -78.8832
rradius 122.5
rwrist -41.8177
rhand 30.7242 23.8049
rfingers 7.12502
rthumb 54.3569 5.21101
lclavicle -5.25537e-014 5.56597e-015
lhumerus -29.3018 -24.6976 79.1503
lradius 124.103
lwrist 46.3035
lhand 18.7393 40.2556
lfingers 7.12502
lthumb 43.3589 64.3735
rfemur -21.5796 16.4185 -4.3157
rtibia 20.9003
rfoot 1.68194 -8.16207
rtoes 4.92468
lfemur -7.47817 -6.61367 -19.531
ltibia 27.1186
lfoot -17.1125 -7.05661
ltoes 4.78421
966
root 17.7926 18.3189 6.92446 -174.509 -46.0818 175.682
lowerback 5.92473 -0.581975 -5.56765
upperback 2.65251 -1.16785 0.280706
thorax -0.465834 -0.669063 3.48723
lowerneck -7.57275 -5.03017 -4.53962
upperneck 12.9456 -6.80519 2.86098
head 5.39743 -3.41817 1.14603
rclavicle 6.75868e-015 -8.24956e-015
rhumerus -43.7762 9.65345 -79.0239
rradius 124.586
rwrist -42.0503
rhand 34.2869 24.1807
rfingers 7.12502
rthumb 57.5142 8.03127
lclavicle 6.75868e-015 -8.24956e-015
lhumerus -27.8707 -25.4335 78.5293
lradius 125.611
lwrist 46.8822
lhand 18.828 40.2214
lfingers 7.12502
lthumb 43.4418 64.3093
rfemur -21.3148 15.5726 -1.52532
rtibia 20.9519
rfoot 2.61985 -9.83442
rtoes 5.97907
lfemur -7.03538 -6.29095 -17.9014
ltibia 27.22
lfoot -17.3291 -6.47061
ltoes 3.97359
967
root 17.7775 18.3412 7.05016 -173.712 -45.3598 174.967
lowerback 5.75972 -0.459917 -6.06854
upperback 2.49396 -1.02379 0.0843363
thorax -0.545702 -0.591738 3.55588
lowerneck -7.02142 -4.93606 -4.13246
upperneck 12.7605 -6.74057 2.75844
head 5.22605 -3.38438 1.07107
rclavicle 3.67752e-015 -6.36111e-015
rhumerus -42.7742 10.7412 -79.0132
rradius 126.391
rwrist -41.6831
rhand 38.0167 25.1609
rfingers 7.12502
rthumb 60.7317 12.1724
lclavicle 3.67752e-015 -6.36111e-015
lhumerus -26.4531 -26.0821 77.8025
lradius 127.013
lwrist 46.9564
lhand 20.2087 39.9007
lfingers 7.12502
lthumb 44.7295 63.506
rfemur -21.919 15.5307 -2.0229
rtibia 21.2468
rfoot 2.21098 -12.518
rtoes 10.7948
lfemur -7.53033 -6.33558 -18.907
ltibia 27.2848
lfoot -17.3779 -5.72408
ltoes 4.25525
968
root 17.7665 18.3599 7.17093 -173.519 -44.6184 174.858
lowerback 5.76419 -0.353546 -6.21357
upperback 2.31284 -0.890753 0.0468398
thorax -0.74754 -0.512893 3.59273
lowerneck -6.48369 -4.82641 -3.91377
upperneck 12.9139 -6.64323 2.58967
head 5.16572 -3.35201 1.00289
rclavicle -4.03781e-014 -3.8763e-015
rhumerus -41.6168 11.7428 -78.715
rradius 128.045
rwrist -40.9872
rhand 40.4416 26.0985
rfingers 7.12502
rthumb 62.7602 15.5845
lclavicle -4.03781e-014 -3.8763e-015
lhumerus -25.1944 -26.469 77.1585
lradius 128.369
lwrist 46.4751
lhand 22.1632 39.6627
lfingers 7.12502
lthumb 46.5447 62.5269
rfemur -22.5085 15.0076 -1.84627
rtibia 21.8062
rfoot 1.79336 -14.1344
rtoes 12.5378
lfemur -7.83437 -6.17986 -19.4386
ltibia 27.2306
lfoot -17.2085 -5.15854
ltoes 4.11292
969
root 17.7561 18.375 7.27856 -173.56 -43.9516 174.684
lowerback 5.91281 -0.319716 -6.44267
upperback 2.24863 -0.873454 -0.0171208
thorax -0.895654 -0.499268 3.65701
lowerneck -6.02063 -4.64498 -3.83696
upperneck 13.1832 -6.47222 2.67999
head 5.16495 -3.27505 1.03837
rclavicle 9.45967e-014 -2.98177e-016
rhumerus -40.0384 12.6683 -78.3137
rradius 129.544
rwrist -40.2589
rhand 41.1341 27.1088
rfingers 7.12502
rthumb 63.3284 17.3734
lclavicle 9.45967e-014 -2.98177e-016
lhumerus -23.781 -26.5869 76.3481
lradius 129.628
lwrist 45.5333
lhand 23.0337 39.3277
lfingers 7.12502
lthumb 47.35 61.8382
rfemur -22.8282 14.2746 -1.53916
rtibia 22.6702
rfoot 1.38299 -14.8393
rtoes 12.1706
lfemur -7.73114 -5.88815 -20.0142
ltibia 26.9412
lfoot -16.7222 -4.91895
ltoes 4.01543
970
root 17.7439 18.3902 7.37394 -173.576 -43.2703 174.454
lowerback 5.8853 -0.490497 -6.97439
upperback 2.34004 -1.12651 0.138427
thorax -0.741885 -0.637847 4.13155
lowerneck -6.08988 -4.26463 -4.4927
upperneck 13.6333 -5.97418 3.09517
head 5.3315 -3.04532 1.29961
rclavicle -4.94477e-014 -1.78906e-014
rhumerus -37.6337 14.0836 -77.47
rradius 130.741
rwrist -39.973
rhand 41.4792 28.724
rfingers 7.12502
rthumb 63.6094 19.3897
lclavicle -4.94477e-014 -1.78906e-014
lhumerus -22.135 -25.6582 75.5459
lradius 130.761
lwrist 44.2028
lhand 23.311 39.0803
lfingers 7.12502
lthumb 47.6061 61.4748
rfemur -22.9363 13.4473 -1.17277
rtibia 23.5047
rfoot 1.01389 -14.8762
rtoes 10.3782
lfemur -7.54596 -5.47964 -20.5739
ltibia 26.5998
lfoot -16.2517 -4.89449
ltoes 5.04858
971
root 17.7283 18.4098 7.46715 -173.652 -42.5842 174.285
lowerback 5.72908 -0.562351 -7.41726
upperback 2.51721 -1.23138 0.274447
thorax -0.44344 -0.712315 4.52309
lowerneck -6.25068 -4.01739 -4.94375
upperneck 14.0174 -5.63046 3.25797
head 5.48215 -2.89455 1.44025
rclavicle 7.57121e-014 -1.86858e-014
rhumerus -34.8184 15.0093 -76.2938
rradius 131.813
rwrist -40.3288
rhand 41.4297 29.3611
rfingers 7.12502
rthumb 63.5692 19.9687
lclavicle 7.57121e-014 -1.86858e-014
lhumerus -20.0181 -24.9007 74.6063
lradius 131.73
lwrist 42.9093
lhand 22.298 39.5761
lfingers 7.12502
lthumb 46.6695 62.3865
rfemur -22.942 12.445 -0.751529
rtibia 24.1179
rfoot 0.524819 -14.8161
rtoes 11.094
lfemur -7.2963 -4.97786 -21.0648
ltibia 26.2387
lfoot -15.8147 -4.92488
ltoes 7.57668
